<mxfile host="app.diagrams.net" modified="2021-08-08T02:09:52.835Z" agent="5.0 (Windows NT 10.0; Win64; x64) AppleWebKit/537.36 (KHTML, like Gecko) Chrome/92.0.4515.107 Safari/537.36 Edg/92.0.902.62" etag="Dugsvjv-7CnbnzWm4E63" version="14.9.5" type="github">
  <diagram id="C5RBs43oDa-KdzZeNtuy" name="Page-1">
    <mxGraphModel dx="1488" dy="862" grid="1" gridSize="10" guides="1" tooltips="1" connect="1" arrows="1" fold="1" page="1" pageScale="1" pageWidth="1169" pageHeight="827" math="0" shadow="0">
      <root>
        <mxCell id="WIyWlLk6GJQsqaUBKTNV-0" />
        <mxCell id="WIyWlLk6GJQsqaUBKTNV-1" parent="WIyWlLk6GJQsqaUBKTNV-0" />
        <mxCell id="quBMS3EjXEbt8guT9nHp-3" value="" style="edgeStyle=orthogonalEdgeStyle;rounded=0;orthogonalLoop=1;jettySize=auto;html=1;" edge="1" parent="WIyWlLk6GJQsqaUBKTNV-1" source="quBMS3EjXEbt8guT9nHp-0" target="quBMS3EjXEbt8guT9nHp-2">
          <mxGeometry relative="1" as="geometry" />
        </mxCell>
        <mxCell id="quBMS3EjXEbt8guT9nHp-0" value="" style="ellipse;whiteSpace=wrap;html=1;" vertex="1" parent="WIyWlLk6GJQsqaUBKTNV-1">
          <mxGeometry x="70" y="70" width="120" height="70" as="geometry" />
        </mxCell>
        <mxCell id="quBMS3EjXEbt8guT9nHp-1" value="start" style="text;html=1;strokeColor=none;fillColor=none;align=center;verticalAlign=middle;whiteSpace=wrap;rounded=0;" vertex="1" parent="WIyWlLk6GJQsqaUBKTNV-1">
          <mxGeometry x="100" y="90" width="60" height="30" as="geometry" />
        </mxCell>
        <mxCell id="quBMS3EjXEbt8guT9nHp-7" value="" style="edgeStyle=orthogonalEdgeStyle;rounded=0;orthogonalLoop=1;jettySize=auto;html=1;" edge="1" parent="WIyWlLk6GJQsqaUBKTNV-1" source="quBMS3EjXEbt8guT9nHp-2" target="quBMS3EjXEbt8guT9nHp-6">
          <mxGeometry relative="1" as="geometry" />
        </mxCell>
        <mxCell id="quBMS3EjXEbt8guT9nHp-2" value="Landing page" style="whiteSpace=wrap;html=1;" vertex="1" parent="WIyWlLk6GJQsqaUBKTNV-1">
          <mxGeometry x="70" y="230" width="120" height="60" as="geometry" />
        </mxCell>
        <mxCell id="quBMS3EjXEbt8guT9nHp-11" value="" style="edgeStyle=orthogonalEdgeStyle;rounded=0;orthogonalLoop=1;jettySize=auto;html=1;entryX=0;entryY=0.5;entryDx=0;entryDy=0;" edge="1" parent="WIyWlLk6GJQsqaUBKTNV-1" source="quBMS3EjXEbt8guT9nHp-6" target="quBMS3EjXEbt8guT9nHp-28">
          <mxGeometry relative="1" as="geometry">
            <mxPoint x="490" y="260" as="targetPoint" />
            <Array as="points">
              <mxPoint x="520" y="260" />
            </Array>
          </mxGeometry>
        </mxCell>
        <mxCell id="quBMS3EjXEbt8guT9nHp-50" value="" style="edgeStyle=orthogonalEdgeStyle;rounded=0;orthogonalLoop=1;jettySize=auto;html=1;" edge="1" parent="WIyWlLk6GJQsqaUBKTNV-1" source="quBMS3EjXEbt8guT9nHp-6" target="quBMS3EjXEbt8guT9nHp-49">
          <mxGeometry relative="1" as="geometry" />
        </mxCell>
        <mxCell id="quBMS3EjXEbt8guT9nHp-6" value="IF login" style="rhombus;whiteSpace=wrap;html=1;" vertex="1" parent="WIyWlLk6GJQsqaUBKTNV-1">
          <mxGeometry x="290" y="220" width="80" height="80" as="geometry" />
        </mxCell>
        <mxCell id="quBMS3EjXEbt8guT9nHp-23" value="True" style="text;html=1;strokeColor=none;fillColor=none;align=center;verticalAlign=middle;whiteSpace=wrap;rounded=0;" vertex="1" parent="WIyWlLk6GJQsqaUBKTNV-1">
          <mxGeometry x="400" y="232" width="40" height="20" as="geometry" />
        </mxCell>
        <mxCell id="quBMS3EjXEbt8guT9nHp-31" value="" style="edgeStyle=orthogonalEdgeStyle;rounded=0;orthogonalLoop=1;jettySize=auto;html=1;" edge="1" parent="WIyWlLk6GJQsqaUBKTNV-1" source="quBMS3EjXEbt8guT9nHp-28" target="quBMS3EjXEbt8guT9nHp-30">
          <mxGeometry relative="1" as="geometry">
            <Array as="points">
              <mxPoint x="510" y="390" />
              <mxPoint x="490" y="390" />
            </Array>
          </mxGeometry>
        </mxCell>
        <mxCell id="quBMS3EjXEbt8guT9nHp-35" value="" style="edgeStyle=orthogonalEdgeStyle;rounded=0;orthogonalLoop=1;jettySize=auto;html=1;" edge="1" parent="WIyWlLk6GJQsqaUBKTNV-1" source="quBMS3EjXEbt8guT9nHp-28" target="quBMS3EjXEbt8guT9nHp-34">
          <mxGeometry relative="1" as="geometry" />
        </mxCell>
        <mxCell id="quBMS3EjXEbt8guT9nHp-28" value="if registered" style="rhombus;whiteSpace=wrap;html=1;" vertex="1" parent="WIyWlLk6GJQsqaUBKTNV-1">
          <mxGeometry x="470" y="220" width="80" height="80" as="geometry" />
        </mxCell>
        <mxCell id="quBMS3EjXEbt8guT9nHp-30" value="register the users" style="whiteSpace=wrap;html=1;" vertex="1" parent="WIyWlLk6GJQsqaUBKTNV-1">
          <mxGeometry x="440" y="450" width="120" height="60" as="geometry" />
        </mxCell>
        <mxCell id="quBMS3EjXEbt8guT9nHp-55" value="" style="edgeStyle=orthogonalEdgeStyle;rounded=0;orthogonalLoop=1;jettySize=auto;html=1;" edge="1" parent="WIyWlLk6GJQsqaUBKTNV-1" source="quBMS3EjXEbt8guT9nHp-34" target="quBMS3EjXEbt8guT9nHp-36">
          <mxGeometry relative="1" as="geometry" />
        </mxCell>
        <mxCell id="quBMS3EjXEbt8guT9nHp-34" value="ask users username and password" style="whiteSpace=wrap;html=1;" vertex="1" parent="WIyWlLk6GJQsqaUBKTNV-1">
          <mxGeometry x="770" y="248" width="120" height="60" as="geometry" />
        </mxCell>
        <mxCell id="quBMS3EjXEbt8guT9nHp-41" value="" style="edgeStyle=orthogonalEdgeStyle;rounded=0;orthogonalLoop=1;jettySize=auto;html=1;" edge="1" parent="WIyWlLk6GJQsqaUBKTNV-1" source="quBMS3EjXEbt8guT9nHp-36" target="quBMS3EjXEbt8guT9nHp-40">
          <mxGeometry relative="1" as="geometry" />
        </mxCell>
        <mxCell id="quBMS3EjXEbt8guT9nHp-57" style="edgeStyle=orthogonalEdgeStyle;rounded=0;orthogonalLoop=1;jettySize=auto;html=1;" edge="1" parent="WIyWlLk6GJQsqaUBKTNV-1" source="quBMS3EjXEbt8guT9nHp-36">
          <mxGeometry relative="1" as="geometry">
            <mxPoint x="570" y="260" as="targetPoint" />
          </mxGeometry>
        </mxCell>
        <mxCell id="quBMS3EjXEbt8guT9nHp-36" value="if record match" style="rhombus;whiteSpace=wrap;html=1;" vertex="1" parent="WIyWlLk6GJQsqaUBKTNV-1">
          <mxGeometry x="790" y="358" width="80" height="80" as="geometry" />
        </mxCell>
        <mxCell id="quBMS3EjXEbt8guT9nHp-62" value="" style="edgeStyle=orthogonalEdgeStyle;rounded=0;orthogonalLoop=1;jettySize=auto;html=1;" edge="1" parent="WIyWlLk6GJQsqaUBKTNV-1" source="quBMS3EjXEbt8guT9nHp-40" target="quBMS3EjXEbt8guT9nHp-61">
          <mxGeometry relative="1" as="geometry" />
        </mxCell>
        <mxCell id="quBMS3EjXEbt8guT9nHp-40" value="goto Home&amp;nbsp;" style="whiteSpace=wrap;html=1;" vertex="1" parent="WIyWlLk6GJQsqaUBKTNV-1">
          <mxGeometry x="770" y="513" width="120" height="60" as="geometry" />
        </mxCell>
        <mxCell id="quBMS3EjXEbt8guT9nHp-45" value="True" style="text;html=1;strokeColor=none;fillColor=none;align=center;verticalAlign=middle;whiteSpace=wrap;rounded=0;" vertex="1" parent="WIyWlLk6GJQsqaUBKTNV-1">
          <mxGeometry x="600" y="240" width="40" height="20" as="geometry" />
        </mxCell>
        <mxCell id="quBMS3EjXEbt8guT9nHp-46" value="True" style="text;html=1;strokeColor=none;fillColor=none;align=center;verticalAlign=middle;whiteSpace=wrap;rounded=0;" vertex="1" parent="WIyWlLk6GJQsqaUBKTNV-1">
          <mxGeometry x="820" y="453" width="40" height="20" as="geometry" />
        </mxCell>
        <mxCell id="quBMS3EjXEbt8guT9nHp-47" value="false" style="text;html=1;strokeColor=none;fillColor=none;align=center;verticalAlign=middle;whiteSpace=wrap;rounded=0;" vertex="1" parent="WIyWlLk6GJQsqaUBKTNV-1">
          <mxGeometry x="660" y="380" width="40" height="20" as="geometry" />
        </mxCell>
        <mxCell id="quBMS3EjXEbt8guT9nHp-48" value="true" style="text;html=1;strokeColor=none;fillColor=none;align=center;verticalAlign=middle;whiteSpace=wrap;rounded=0;" vertex="1" parent="WIyWlLk6GJQsqaUBKTNV-1">
          <mxGeometry x="400" y="400" width="40" height="20" as="geometry" />
        </mxCell>
        <mxCell id="quBMS3EjXEbt8guT9nHp-52" style="edgeStyle=orthogonalEdgeStyle;rounded=0;orthogonalLoop=1;jettySize=auto;html=1;entryX=0.407;entryY=-0.016;entryDx=0;entryDy=0;entryPerimeter=0;" edge="1" parent="WIyWlLk6GJQsqaUBKTNV-1" source="quBMS3EjXEbt8guT9nHp-49" target="quBMS3EjXEbt8guT9nHp-30">
          <mxGeometry relative="1" as="geometry" />
        </mxCell>
        <mxCell id="quBMS3EjXEbt8guT9nHp-67" value="" style="edgeStyle=orthogonalEdgeStyle;rounded=0;orthogonalLoop=1;jettySize=auto;html=1;" edge="1" parent="WIyWlLk6GJQsqaUBKTNV-1" source="quBMS3EjXEbt8guT9nHp-49" target="quBMS3EjXEbt8guT9nHp-66">
          <mxGeometry relative="1" as="geometry" />
        </mxCell>
        <mxCell id="quBMS3EjXEbt8guT9nHp-49" value="ELSE IF register" style="rhombus;whiteSpace=wrap;html=1;" vertex="1" parent="WIyWlLk6GJQsqaUBKTNV-1">
          <mxGeometry x="290" y="380" width="80" height="80" as="geometry" />
        </mxCell>
        <mxCell id="quBMS3EjXEbt8guT9nHp-51" value="false" style="text;html=1;strokeColor=none;fillColor=none;align=center;verticalAlign=middle;whiteSpace=wrap;rounded=0;" vertex="1" parent="WIyWlLk6GJQsqaUBKTNV-1">
          <mxGeometry x="290" y="330" width="40" height="20" as="geometry" />
        </mxCell>
        <mxCell id="quBMS3EjXEbt8guT9nHp-61" value="A" style="ellipse;whiteSpace=wrap;html=1;" vertex="1" parent="WIyWlLk6GJQsqaUBKTNV-1">
          <mxGeometry x="800" y="628" width="60" height="40" as="geometry" />
        </mxCell>
        <mxCell id="quBMS3EjXEbt8guT9nHp-65" value="" style="edgeStyle=orthogonalEdgeStyle;rounded=0;orthogonalLoop=1;jettySize=auto;html=1;" edge="1" parent="WIyWlLk6GJQsqaUBKTNV-1" source="quBMS3EjXEbt8guT9nHp-63" target="quBMS3EjXEbt8guT9nHp-64">
          <mxGeometry relative="1" as="geometry" />
        </mxCell>
        <mxCell id="quBMS3EjXEbt8guT9nHp-63" value="A" style="ellipse;whiteSpace=wrap;html=1;" vertex="1" parent="WIyWlLk6GJQsqaUBKTNV-1">
          <mxGeometry x="130" y="880" width="60" height="40" as="geometry" />
        </mxCell>
        <mxCell id="quBMS3EjXEbt8guT9nHp-75" value="" style="edgeStyle=orthogonalEdgeStyle;rounded=0;orthogonalLoop=1;jettySize=auto;html=1;" edge="1" parent="WIyWlLk6GJQsqaUBKTNV-1" source="quBMS3EjXEbt8guT9nHp-64" target="quBMS3EjXEbt8guT9nHp-74">
          <mxGeometry relative="1" as="geometry" />
        </mxCell>
        <mxCell id="quBMS3EjXEbt8guT9nHp-84" value="" style="edgeStyle=orthogonalEdgeStyle;rounded=0;orthogonalLoop=1;jettySize=auto;html=1;" edge="1" parent="WIyWlLk6GJQsqaUBKTNV-1" source="quBMS3EjXEbt8guT9nHp-64" target="quBMS3EjXEbt8guT9nHp-83">
          <mxGeometry relative="1" as="geometry" />
        </mxCell>
        <mxCell id="quBMS3EjXEbt8guT9nHp-64" value="IF NEW NOTE" style="rhombus;whiteSpace=wrap;html=1;" vertex="1" parent="WIyWlLk6GJQsqaUBKTNV-1">
          <mxGeometry x="260" y="860" width="80" height="80" as="geometry" />
        </mxCell>
        <mxCell id="quBMS3EjXEbt8guT9nHp-69" value="" style="edgeStyle=orthogonalEdgeStyle;rounded=0;orthogonalLoop=1;jettySize=auto;html=1;" edge="1" parent="WIyWlLk6GJQsqaUBKTNV-1" source="quBMS3EjXEbt8guT9nHp-66" target="quBMS3EjXEbt8guT9nHp-68">
          <mxGeometry relative="1" as="geometry">
            <Array as="points">
              <mxPoint x="210" y="670" />
              <mxPoint x="330" y="670" />
            </Array>
          </mxGeometry>
        </mxCell>
        <mxCell id="quBMS3EjXEbt8guT9nHp-66" value="ELSE IF new note" style="rhombus;whiteSpace=wrap;html=1;" vertex="1" parent="WIyWlLk6GJQsqaUBKTNV-1">
          <mxGeometry x="170" y="545" width="80" height="80" as="geometry" />
        </mxCell>
        <mxCell id="quBMS3EjXEbt8guT9nHp-71" value="" style="edgeStyle=orthogonalEdgeStyle;rounded=0;orthogonalLoop=1;jettySize=auto;html=1;" edge="1" parent="WIyWlLk6GJQsqaUBKTNV-1" source="quBMS3EjXEbt8guT9nHp-68" target="quBMS3EjXEbt8guT9nHp-70">
          <mxGeometry relative="1" as="geometry" />
        </mxCell>
        <mxCell id="quBMS3EjXEbt8guT9nHp-68" value="ELSE IF explore" style="rhombus;whiteSpace=wrap;html=1;" vertex="1" parent="WIyWlLk6GJQsqaUBKTNV-1">
          <mxGeometry x="350" y="630" width="80" height="80" as="geometry" />
        </mxCell>
        <mxCell id="quBMS3EjXEbt8guT9nHp-70" value="see all notes" style="whiteSpace=wrap;html=1;" vertex="1" parent="WIyWlLk6GJQsqaUBKTNV-1">
          <mxGeometry x="530" y="640" width="120" height="60" as="geometry" />
        </mxCell>
        <mxCell id="quBMS3EjXEbt8guT9nHp-72" value="false" style="text;html=1;strokeColor=none;fillColor=none;align=center;verticalAlign=middle;whiteSpace=wrap;rounded=0;" vertex="1" parent="WIyWlLk6GJQsqaUBKTNV-1">
          <mxGeometry x="466" y="336" width="40" height="20" as="geometry" />
        </mxCell>
        <mxCell id="quBMS3EjXEbt8guT9nHp-77" value="" style="edgeStyle=orthogonalEdgeStyle;rounded=0;orthogonalLoop=1;jettySize=auto;html=1;" edge="1" parent="WIyWlLk6GJQsqaUBKTNV-1" source="quBMS3EjXEbt8guT9nHp-74" target="quBMS3EjXEbt8guT9nHp-76">
          <mxGeometry relative="1" as="geometry" />
        </mxCell>
        <mxCell id="quBMS3EjXEbt8guT9nHp-138" value="" style="edgeStyle=orthogonalEdgeStyle;rounded=0;orthogonalLoop=1;jettySize=auto;html=1;" edge="1" parent="WIyWlLk6GJQsqaUBKTNV-1" source="quBMS3EjXEbt8guT9nHp-74" target="quBMS3EjXEbt8guT9nHp-137">
          <mxGeometry relative="1" as="geometry" />
        </mxCell>
        <mxCell id="quBMS3EjXEbt8guT9nHp-74" value="If Explore" style="rhombus;whiteSpace=wrap;html=1;" vertex="1" parent="WIyWlLk6GJQsqaUBKTNV-1">
          <mxGeometry x="260" y="1020" width="80" height="80" as="geometry" />
        </mxCell>
        <mxCell id="quBMS3EjXEbt8guT9nHp-136" value="" style="edgeStyle=orthogonalEdgeStyle;rounded=0;orthogonalLoop=1;jettySize=auto;html=1;" edge="1" parent="WIyWlLk6GJQsqaUBKTNV-1" source="quBMS3EjXEbt8guT9nHp-76" target="quBMS3EjXEbt8guT9nHp-135">
          <mxGeometry relative="1" as="geometry" />
        </mxCell>
        <mxCell id="quBMS3EjXEbt8guT9nHp-184" value="" style="edgeStyle=orthogonalEdgeStyle;rounded=0;orthogonalLoop=1;jettySize=auto;html=1;" edge="1" parent="WIyWlLk6GJQsqaUBKTNV-1" source="quBMS3EjXEbt8guT9nHp-76" target="quBMS3EjXEbt8guT9nHp-183">
          <mxGeometry relative="1" as="geometry" />
        </mxCell>
        <mxCell id="quBMS3EjXEbt8guT9nHp-76" value="If Search" style="rhombus;whiteSpace=wrap;html=1;" vertex="1" parent="WIyWlLk6GJQsqaUBKTNV-1">
          <mxGeometry x="260" y="1180" width="80" height="80" as="geometry" />
        </mxCell>
        <mxCell id="quBMS3EjXEbt8guT9nHp-78" value="false" style="text;html=1;strokeColor=none;fillColor=none;align=center;verticalAlign=middle;whiteSpace=wrap;rounded=0;" vertex="1" parent="WIyWlLk6GJQsqaUBKTNV-1">
          <mxGeometry x="257" y="967" width="40" height="20" as="geometry" />
        </mxCell>
        <mxCell id="quBMS3EjXEbt8guT9nHp-79" value="false" style="text;html=1;strokeColor=none;fillColor=none;align=center;verticalAlign=middle;whiteSpace=wrap;rounded=0;" vertex="1" parent="WIyWlLk6GJQsqaUBKTNV-1">
          <mxGeometry x="257" y="1127" width="40" height="20" as="geometry" />
        </mxCell>
        <mxCell id="quBMS3EjXEbt8guT9nHp-86" value="" style="edgeStyle=orthogonalEdgeStyle;rounded=0;orthogonalLoop=1;jettySize=auto;html=1;" edge="1" parent="WIyWlLk6GJQsqaUBKTNV-1" source="quBMS3EjXEbt8guT9nHp-83" target="quBMS3EjXEbt8guT9nHp-85">
          <mxGeometry relative="1" as="geometry" />
        </mxCell>
        <mxCell id="quBMS3EjXEbt8guT9nHp-83" value="IF add Note" style="rhombus;whiteSpace=wrap;html=1;" vertex="1" parent="WIyWlLk6GJQsqaUBKTNV-1">
          <mxGeometry x="420" y="860" width="80" height="80" as="geometry" />
        </mxCell>
        <mxCell id="quBMS3EjXEbt8guT9nHp-88" value="" style="edgeStyle=orthogonalEdgeStyle;rounded=0;orthogonalLoop=1;jettySize=auto;html=1;" edge="1" parent="WIyWlLk6GJQsqaUBKTNV-1" source="quBMS3EjXEbt8guT9nHp-85" target="quBMS3EjXEbt8guT9nHp-87">
          <mxGeometry relative="1" as="geometry" />
        </mxCell>
        <mxCell id="quBMS3EjXEbt8guT9nHp-85" value="Add New Note" style="whiteSpace=wrap;html=1;" vertex="1" parent="WIyWlLk6GJQsqaUBKTNV-1">
          <mxGeometry x="560" y="870" width="120" height="60" as="geometry" />
        </mxCell>
        <mxCell id="quBMS3EjXEbt8guT9nHp-90" value="" style="edgeStyle=orthogonalEdgeStyle;rounded=0;orthogonalLoop=1;jettySize=auto;html=1;" edge="1" parent="WIyWlLk6GJQsqaUBKTNV-1" source="quBMS3EjXEbt8guT9nHp-87" target="quBMS3EjXEbt8guT9nHp-89">
          <mxGeometry relative="1" as="geometry" />
        </mxCell>
        <mxCell id="quBMS3EjXEbt8guT9nHp-87" value="Ask new Information" style="whiteSpace=wrap;html=1;" vertex="1" parent="WIyWlLk6GJQsqaUBKTNV-1">
          <mxGeometry x="560" y="1010" width="120" height="60" as="geometry" />
        </mxCell>
        <mxCell id="quBMS3EjXEbt8guT9nHp-96" value="" style="edgeStyle=orthogonalEdgeStyle;rounded=0;orthogonalLoop=1;jettySize=auto;html=1;" edge="1" parent="WIyWlLk6GJQsqaUBKTNV-1" source="quBMS3EjXEbt8guT9nHp-89" target="quBMS3EjXEbt8guT9nHp-95">
          <mxGeometry relative="1" as="geometry">
            <Array as="points">
              <mxPoint x="515" y="1230" />
              <mxPoint x="515" y="1230" />
            </Array>
          </mxGeometry>
        </mxCell>
        <mxCell id="quBMS3EjXEbt8guT9nHp-89" value="save new note" style="whiteSpace=wrap;html=1;" vertex="1" parent="WIyWlLk6GJQsqaUBKTNV-1">
          <mxGeometry x="560" y="1195" width="120" height="60" as="geometry" />
        </mxCell>
        <mxCell id="quBMS3EjXEbt8guT9nHp-98" value="" style="edgeStyle=orthogonalEdgeStyle;rounded=0;orthogonalLoop=1;jettySize=auto;html=1;" edge="1" parent="WIyWlLk6GJQsqaUBKTNV-1" source="quBMS3EjXEbt8guT9nHp-95" target="quBMS3EjXEbt8guT9nHp-97">
          <mxGeometry relative="1" as="geometry" />
        </mxCell>
        <mxCell id="quBMS3EjXEbt8guT9nHp-95" value="if Clicked the note" style="rhombus;whiteSpace=wrap;html=1;" vertex="1" parent="WIyWlLk6GJQsqaUBKTNV-1">
          <mxGeometry x="475" y="1280" width="80" height="80" as="geometry" />
        </mxCell>
        <mxCell id="quBMS3EjXEbt8guT9nHp-100" value="" style="edgeStyle=orthogonalEdgeStyle;rounded=0;orthogonalLoop=1;jettySize=auto;html=1;" edge="1" parent="WIyWlLk6GJQsqaUBKTNV-1" source="quBMS3EjXEbt8guT9nHp-97" target="quBMS3EjXEbt8guT9nHp-99">
          <mxGeometry relative="1" as="geometry" />
        </mxCell>
        <mxCell id="quBMS3EjXEbt8guT9nHp-97" value="open Note section" style="whiteSpace=wrap;html=1;" vertex="1" parent="WIyWlLk6GJQsqaUBKTNV-1">
          <mxGeometry x="455" y="1390" width="120" height="60" as="geometry" />
        </mxCell>
        <mxCell id="quBMS3EjXEbt8guT9nHp-102" value="" style="edgeStyle=orthogonalEdgeStyle;rounded=0;orthogonalLoop=1;jettySize=auto;html=1;" edge="1" parent="WIyWlLk6GJQsqaUBKTNV-1" source="quBMS3EjXEbt8guT9nHp-99">
          <mxGeometry relative="1" as="geometry">
            <mxPoint x="660" y="1630" as="targetPoint" />
            <Array as="points">
              <mxPoint x="515" y="1630" />
              <mxPoint x="630" y="1630" />
            </Array>
          </mxGeometry>
        </mxCell>
        <mxCell id="quBMS3EjXEbt8guT9nHp-104" value="" style="edgeStyle=orthogonalEdgeStyle;rounded=0;orthogonalLoop=1;jettySize=auto;html=1;" edge="1" parent="WIyWlLk6GJQsqaUBKTNV-1" source="quBMS3EjXEbt8guT9nHp-99" target="quBMS3EjXEbt8guT9nHp-103">
          <mxGeometry relative="1" as="geometry" />
        </mxCell>
        <mxCell id="quBMS3EjXEbt8guT9nHp-99" value="if add page" style="rhombus;whiteSpace=wrap;html=1;" vertex="1" parent="WIyWlLk6GJQsqaUBKTNV-1">
          <mxGeometry x="475" y="1490" width="80" height="80" as="geometry" />
        </mxCell>
        <mxCell id="quBMS3EjXEbt8guT9nHp-122" value="" style="edgeStyle=orthogonalEdgeStyle;rounded=0;orthogonalLoop=1;jettySize=auto;html=1;" edge="1" parent="WIyWlLk6GJQsqaUBKTNV-1" source="quBMS3EjXEbt8guT9nHp-101" target="quBMS3EjXEbt8guT9nHp-105">
          <mxGeometry relative="1" as="geometry" />
        </mxCell>
        <mxCell id="quBMS3EjXEbt8guT9nHp-142" value="" style="edgeStyle=orthogonalEdgeStyle;rounded=0;orthogonalLoop=1;jettySize=auto;html=1;entryX=1;entryY=0.5;entryDx=0;entryDy=0;" edge="1" parent="WIyWlLk6GJQsqaUBKTNV-1" source="quBMS3EjXEbt8guT9nHp-101" target="quBMS3EjXEbt8guT9nHp-192">
          <mxGeometry relative="1" as="geometry">
            <mxPoint x="810" y="1630" as="targetPoint" />
            <Array as="points">
              <mxPoint x="910" y="1620" />
            </Array>
          </mxGeometry>
        </mxCell>
        <mxCell id="quBMS3EjXEbt8guT9nHp-101" value="else if add resources" style="rhombus;whiteSpace=wrap;html=1;" vertex="1" parent="WIyWlLk6GJQsqaUBKTNV-1">
          <mxGeometry x="870" y="1510" width="80" height="80" as="geometry" />
        </mxCell>
        <mxCell id="quBMS3EjXEbt8guT9nHp-108" value="" style="edgeStyle=orthogonalEdgeStyle;rounded=0;orthogonalLoop=1;jettySize=auto;html=1;" edge="1" parent="WIyWlLk6GJQsqaUBKTNV-1" source="quBMS3EjXEbt8guT9nHp-103" target="quBMS3EjXEbt8guT9nHp-107">
          <mxGeometry relative="1" as="geometry" />
        </mxCell>
        <mxCell id="quBMS3EjXEbt8guT9nHp-110" value="" style="edgeStyle=orthogonalEdgeStyle;rounded=0;orthogonalLoop=1;jettySize=auto;html=1;" edge="1" parent="WIyWlLk6GJQsqaUBKTNV-1" source="quBMS3EjXEbt8guT9nHp-103" target="quBMS3EjXEbt8guT9nHp-109">
          <mxGeometry relative="1" as="geometry" />
        </mxCell>
        <mxCell id="quBMS3EjXEbt8guT9nHp-103" value="add new pages" style="whiteSpace=wrap;html=1;" vertex="1" parent="WIyWlLk6GJQsqaUBKTNV-1">
          <mxGeometry x="650" y="1420" width="120" height="60" as="geometry" />
        </mxCell>
        <mxCell id="quBMS3EjXEbt8guT9nHp-128" value="" style="edgeStyle=orthogonalEdgeStyle;rounded=0;orthogonalLoop=1;jettySize=auto;html=1;" edge="1" parent="WIyWlLk6GJQsqaUBKTNV-1" source="quBMS3EjXEbt8guT9nHp-105" target="quBMS3EjXEbt8guT9nHp-127">
          <mxGeometry relative="1" as="geometry" />
        </mxCell>
        <mxCell id="quBMS3EjXEbt8guT9nHp-105" value="ask resource name,link and description" style="whiteSpace=wrap;html=1;" vertex="1" parent="WIyWlLk6GJQsqaUBKTNV-1">
          <mxGeometry x="990" y="1520" width="120" height="60" as="geometry" />
        </mxCell>
        <mxCell id="quBMS3EjXEbt8guT9nHp-121" value="" style="edgeStyle=orthogonalEdgeStyle;rounded=0;orthogonalLoop=1;jettySize=auto;html=1;" edge="1" parent="WIyWlLk6GJQsqaUBKTNV-1" source="quBMS3EjXEbt8guT9nHp-107" target="quBMS3EjXEbt8guT9nHp-101">
          <mxGeometry relative="1" as="geometry" />
        </mxCell>
        <mxCell id="quBMS3EjXEbt8guT9nHp-125" value="" style="edgeStyle=orthogonalEdgeStyle;rounded=0;orthogonalLoop=1;jettySize=auto;html=1;" edge="1" parent="WIyWlLk6GJQsqaUBKTNV-1" source="quBMS3EjXEbt8guT9nHp-107" target="quBMS3EjXEbt8guT9nHp-124">
          <mxGeometry relative="1" as="geometry" />
        </mxCell>
        <mxCell id="quBMS3EjXEbt8guT9nHp-107" value="If Edit page" style="rhombus;whiteSpace=wrap;html=1;" vertex="1" parent="WIyWlLk6GJQsqaUBKTNV-1">
          <mxGeometry x="870" y="1410" width="80" height="80" as="geometry" />
        </mxCell>
        <mxCell id="quBMS3EjXEbt8guT9nHp-112" value="" style="edgeStyle=orthogonalEdgeStyle;rounded=0;orthogonalLoop=1;jettySize=auto;html=1;" edge="1" parent="WIyWlLk6GJQsqaUBKTNV-1" source="quBMS3EjXEbt8guT9nHp-109" target="quBMS3EjXEbt8guT9nHp-111">
          <mxGeometry relative="1" as="geometry" />
        </mxCell>
        <mxCell id="quBMS3EjXEbt8guT9nHp-109" value="if Delete page" style="rhombus;whiteSpace=wrap;html=1;" vertex="1" parent="WIyWlLk6GJQsqaUBKTNV-1">
          <mxGeometry x="670" y="1280" width="80" height="80" as="geometry" />
        </mxCell>
        <mxCell id="quBMS3EjXEbt8guT9nHp-111" value="delete page" style="whiteSpace=wrap;html=1;" vertex="1" parent="WIyWlLk6GJQsqaUBKTNV-1">
          <mxGeometry x="890" y="1300" width="120" height="40" as="geometry" />
        </mxCell>
        <mxCell id="quBMS3EjXEbt8guT9nHp-113" value="true" style="text;html=1;strokeColor=none;fillColor=none;align=center;verticalAlign=middle;whiteSpace=wrap;rounded=0;" vertex="1" parent="WIyWlLk6GJQsqaUBKTNV-1">
          <mxGeometry x="840" y="1300" width="40" height="20" as="geometry" />
        </mxCell>
        <mxCell id="quBMS3EjXEbt8guT9nHp-114" value="true" style="text;html=1;strokeColor=none;fillColor=none;align=center;verticalAlign=middle;whiteSpace=wrap;rounded=0;" vertex="1" parent="WIyWlLk6GJQsqaUBKTNV-1">
          <mxGeometry x="950" y="1430" width="40" height="20" as="geometry" />
        </mxCell>
        <mxCell id="quBMS3EjXEbt8guT9nHp-130" value="" style="edgeStyle=orthogonalEdgeStyle;rounded=0;orthogonalLoop=1;jettySize=auto;html=1;" edge="1" parent="WIyWlLk6GJQsqaUBKTNV-1" source="quBMS3EjXEbt8guT9nHp-124" target="quBMS3EjXEbt8guT9nHp-129">
          <mxGeometry relative="1" as="geometry" />
        </mxCell>
        <mxCell id="quBMS3EjXEbt8guT9nHp-124" value="enter field to edit" style="whiteSpace=wrap;html=1;" vertex="1" parent="WIyWlLk6GJQsqaUBKTNV-1">
          <mxGeometry x="990" y="1420" width="120" height="60" as="geometry" />
        </mxCell>
        <mxCell id="quBMS3EjXEbt8guT9nHp-126" value="true" style="text;html=1;strokeColor=none;fillColor=none;align=center;verticalAlign=middle;whiteSpace=wrap;rounded=0;" vertex="1" parent="WIyWlLk6GJQsqaUBKTNV-1">
          <mxGeometry x="950" y="1530" width="40" height="20" as="geometry" />
        </mxCell>
        <mxCell id="quBMS3EjXEbt8guT9nHp-127" value="add new resources" style="whiteSpace=wrap;html=1;" vertex="1" parent="WIyWlLk6GJQsqaUBKTNV-1">
          <mxGeometry x="990" y="1610" width="120" height="30" as="geometry" />
        </mxCell>
        <mxCell id="quBMS3EjXEbt8guT9nHp-129" value="edit page" style="whiteSpace=wrap;html=1;" vertex="1" parent="WIyWlLk6GJQsqaUBKTNV-1">
          <mxGeometry x="990" y="1360" width="120" height="30" as="geometry" />
        </mxCell>
        <mxCell id="quBMS3EjXEbt8guT9nHp-131" value="false" style="text;html=1;strokeColor=none;fillColor=none;align=center;verticalAlign=middle;whiteSpace=wrap;rounded=0;" vertex="1" parent="WIyWlLk6GJQsqaUBKTNV-1">
          <mxGeometry x="870" y="1490" width="40" height="20" as="geometry" />
        </mxCell>
        <mxCell id="quBMS3EjXEbt8guT9nHp-135" value="D" style="ellipse;whiteSpace=wrap;html=1;aspect=fixed;" vertex="1" parent="WIyWlLk6GJQsqaUBKTNV-1">
          <mxGeometry x="360" y="1230" width="50" height="50" as="geometry" />
        </mxCell>
        <mxCell id="quBMS3EjXEbt8guT9nHp-137" value="C" style="ellipse;whiteSpace=wrap;html=1;aspect=fixed;" vertex="1" parent="WIyWlLk6GJQsqaUBKTNV-1">
          <mxGeometry x="380" y="1030" width="60" height="60" as="geometry" />
        </mxCell>
        <mxCell id="quBMS3EjXEbt8guT9nHp-141" value="b" style="ellipse;whiteSpace=wrap;html=1;" vertex="1" parent="WIyWlLk6GJQsqaUBKTNV-1">
          <mxGeometry x="660" y="1610" width="50" height="40" as="geometry" />
        </mxCell>
        <mxCell id="quBMS3EjXEbt8guT9nHp-145" value="" style="edgeStyle=orthogonalEdgeStyle;rounded=0;orthogonalLoop=1;jettySize=auto;html=1;" edge="1" parent="WIyWlLk6GJQsqaUBKTNV-1" source="quBMS3EjXEbt8guT9nHp-143" target="quBMS3EjXEbt8guT9nHp-144">
          <mxGeometry relative="1" as="geometry" />
        </mxCell>
        <mxCell id="quBMS3EjXEbt8guT9nHp-143" value="b" style="ellipse;whiteSpace=wrap;html=1;" vertex="1" parent="WIyWlLk6GJQsqaUBKTNV-1">
          <mxGeometry x="255" y="1710" width="50" height="40" as="geometry" />
        </mxCell>
        <mxCell id="quBMS3EjXEbt8guT9nHp-149" value="" style="edgeStyle=orthogonalEdgeStyle;rounded=0;orthogonalLoop=1;jettySize=auto;html=1;" edge="1" parent="WIyWlLk6GJQsqaUBKTNV-1" source="quBMS3EjXEbt8guT9nHp-144" target="quBMS3EjXEbt8guT9nHp-148">
          <mxGeometry relative="1" as="geometry" />
        </mxCell>
        <mxCell id="quBMS3EjXEbt8guT9nHp-151" value="" style="edgeStyle=orthogonalEdgeStyle;rounded=0;orthogonalLoop=1;jettySize=auto;html=1;" edge="1" parent="WIyWlLk6GJQsqaUBKTNV-1" source="quBMS3EjXEbt8guT9nHp-144" target="quBMS3EjXEbt8guT9nHp-150">
          <mxGeometry relative="1" as="geometry" />
        </mxCell>
        <mxCell id="quBMS3EjXEbt8guT9nHp-144" value="ELSE IF clicked Bookmark" style="rhombus;whiteSpace=wrap;html=1;" vertex="1" parent="WIyWlLk6GJQsqaUBKTNV-1">
          <mxGeometry x="240" y="1810" width="80" height="80" as="geometry" />
        </mxCell>
        <mxCell id="quBMS3EjXEbt8guT9nHp-175" style="edgeStyle=orthogonalEdgeStyle;rounded=0;orthogonalLoop=1;jettySize=auto;html=1;" edge="1" parent="WIyWlLk6GJQsqaUBKTNV-1" source="quBMS3EjXEbt8guT9nHp-148">
          <mxGeometry relative="1" as="geometry">
            <mxPoint x="920" y="1850" as="targetPoint" />
          </mxGeometry>
        </mxCell>
        <mxCell id="quBMS3EjXEbt8guT9nHp-148" value="add to book mark or remove from book mark" style="whiteSpace=wrap;html=1;" vertex="1" parent="WIyWlLk6GJQsqaUBKTNV-1">
          <mxGeometry x="380" y="1820" width="120" height="60" as="geometry" />
        </mxCell>
        <mxCell id="quBMS3EjXEbt8guT9nHp-153" value="" style="edgeStyle=orthogonalEdgeStyle;rounded=0;orthogonalLoop=1;jettySize=auto;html=1;" edge="1" parent="WIyWlLk6GJQsqaUBKTNV-1" source="quBMS3EjXEbt8guT9nHp-150" target="quBMS3EjXEbt8guT9nHp-152">
          <mxGeometry relative="1" as="geometry" />
        </mxCell>
        <mxCell id="quBMS3EjXEbt8guT9nHp-156" value="" style="edgeStyle=orthogonalEdgeStyle;rounded=0;orthogonalLoop=1;jettySize=auto;html=1;" edge="1" parent="WIyWlLk6GJQsqaUBKTNV-1" source="quBMS3EjXEbt8guT9nHp-150" target="quBMS3EjXEbt8guT9nHp-155">
          <mxGeometry relative="1" as="geometry" />
        </mxCell>
        <mxCell id="quBMS3EjXEbt8guT9nHp-150" value="ELSE IF delete&lt;br&gt;note" style="rhombus;whiteSpace=wrap;html=1;" vertex="1" parent="WIyWlLk6GJQsqaUBKTNV-1">
          <mxGeometry x="240" y="1930" width="80" height="80" as="geometry" />
        </mxCell>
        <mxCell id="quBMS3EjXEbt8guT9nHp-174" style="edgeStyle=orthogonalEdgeStyle;rounded=0;orthogonalLoop=1;jettySize=auto;html=1;" edge="1" parent="WIyWlLk6GJQsqaUBKTNV-1" source="quBMS3EjXEbt8guT9nHp-152">
          <mxGeometry relative="1" as="geometry">
            <mxPoint x="920" y="1960" as="targetPoint" />
            <Array as="points">
              <mxPoint x="880" y="1960" />
              <mxPoint x="880" y="1960" />
            </Array>
          </mxGeometry>
        </mxCell>
        <mxCell id="quBMS3EjXEbt8guT9nHp-152" value="delete note" style="whiteSpace=wrap;html=1;" vertex="1" parent="WIyWlLk6GJQsqaUBKTNV-1">
          <mxGeometry x="380" y="1940" width="120" height="60" as="geometry" />
        </mxCell>
        <mxCell id="quBMS3EjXEbt8guT9nHp-158" value="" style="edgeStyle=orthogonalEdgeStyle;rounded=0;orthogonalLoop=1;jettySize=auto;html=1;" edge="1" parent="WIyWlLk6GJQsqaUBKTNV-1" source="quBMS3EjXEbt8guT9nHp-155" target="quBMS3EjXEbt8guT9nHp-157">
          <mxGeometry relative="1" as="geometry" />
        </mxCell>
        <mxCell id="quBMS3EjXEbt8guT9nHp-164" value="" style="edgeStyle=orthogonalEdgeStyle;rounded=0;orthogonalLoop=1;jettySize=auto;html=1;" edge="1" parent="WIyWlLk6GJQsqaUBKTNV-1" source="quBMS3EjXEbt8guT9nHp-155" target="quBMS3EjXEbt8guT9nHp-163">
          <mxGeometry relative="1" as="geometry" />
        </mxCell>
        <mxCell id="quBMS3EjXEbt8guT9nHp-155" value="ELSE IF see book mark&lt;br&gt;notes" style="rhombus;whiteSpace=wrap;html=1;" vertex="1" parent="WIyWlLk6GJQsqaUBKTNV-1">
          <mxGeometry x="240" y="2035" width="80" height="80" as="geometry" />
        </mxCell>
        <mxCell id="quBMS3EjXEbt8guT9nHp-160" value="" style="edgeStyle=orthogonalEdgeStyle;rounded=0;orthogonalLoop=1;jettySize=auto;html=1;" edge="1" parent="WIyWlLk6GJQsqaUBKTNV-1" source="quBMS3EjXEbt8guT9nHp-157" target="quBMS3EjXEbt8guT9nHp-159">
          <mxGeometry relative="1" as="geometry" />
        </mxCell>
        <mxCell id="quBMS3EjXEbt8guT9nHp-157" value="see all bookmark notes" style="whiteSpace=wrap;html=1;" vertex="1" parent="WIyWlLk6GJQsqaUBKTNV-1">
          <mxGeometry x="380" y="2045" width="120" height="60" as="geometry" />
        </mxCell>
        <mxCell id="quBMS3EjXEbt8guT9nHp-162" value="" style="edgeStyle=orthogonalEdgeStyle;rounded=0;orthogonalLoop=1;jettySize=auto;html=1;" edge="1" parent="WIyWlLk6GJQsqaUBKTNV-1" source="quBMS3EjXEbt8guT9nHp-159" target="quBMS3EjXEbt8guT9nHp-161">
          <mxGeometry relative="1" as="geometry" />
        </mxCell>
        <mxCell id="quBMS3EjXEbt8guT9nHp-159" value="if note is clicked" style="rhombus;whiteSpace=wrap;html=1;" vertex="1" parent="WIyWlLk6GJQsqaUBKTNV-1">
          <mxGeometry x="600" y="2035" width="80" height="80" as="geometry" />
        </mxCell>
        <mxCell id="quBMS3EjXEbt8guT9nHp-173" style="edgeStyle=orthogonalEdgeStyle;rounded=0;orthogonalLoop=1;jettySize=auto;html=1;" edge="1" parent="WIyWlLk6GJQsqaUBKTNV-1" source="quBMS3EjXEbt8guT9nHp-161">
          <mxGeometry relative="1" as="geometry">
            <mxPoint x="920" y="2075" as="targetPoint" />
          </mxGeometry>
        </mxCell>
        <mxCell id="quBMS3EjXEbt8guT9nHp-161" value="Goto Note main page" style="whiteSpace=wrap;html=1;" vertex="1" parent="WIyWlLk6GJQsqaUBKTNV-1">
          <mxGeometry x="741" y="2045" width="120" height="60" as="geometry" />
        </mxCell>
        <mxCell id="quBMS3EjXEbt8guT9nHp-166" value="" style="edgeStyle=orthogonalEdgeStyle;rounded=0;orthogonalLoop=1;jettySize=auto;html=1;" edge="1" parent="WIyWlLk6GJQsqaUBKTNV-1" source="quBMS3EjXEbt8guT9nHp-163" target="quBMS3EjXEbt8guT9nHp-165">
          <mxGeometry relative="1" as="geometry" />
        </mxCell>
        <mxCell id="quBMS3EjXEbt8guT9nHp-168" value="" style="edgeStyle=orthogonalEdgeStyle;rounded=0;orthogonalLoop=1;jettySize=auto;html=1;" edge="1" parent="WIyWlLk6GJQsqaUBKTNV-1" source="quBMS3EjXEbt8guT9nHp-163" target="quBMS3EjXEbt8guT9nHp-167">
          <mxGeometry relative="1" as="geometry" />
        </mxCell>
        <mxCell id="quBMS3EjXEbt8guT9nHp-163" value="ELSE IF clicked setting" style="rhombus;whiteSpace=wrap;html=1;" vertex="1" parent="WIyWlLk6GJQsqaUBKTNV-1">
          <mxGeometry x="240" y="2195" width="80" height="80" as="geometry" />
        </mxCell>
        <mxCell id="quBMS3EjXEbt8guT9nHp-171" style="edgeStyle=orthogonalEdgeStyle;rounded=0;orthogonalLoop=1;jettySize=auto;html=1;" edge="1" parent="WIyWlLk6GJQsqaUBKTNV-1" source="quBMS3EjXEbt8guT9nHp-165">
          <mxGeometry relative="1" as="geometry">
            <mxPoint x="920" y="2235" as="targetPoint" />
          </mxGeometry>
        </mxCell>
        <mxCell id="quBMS3EjXEbt8guT9nHp-165" value="change detail about the user" style="whiteSpace=wrap;html=1;" vertex="1" parent="WIyWlLk6GJQsqaUBKTNV-1">
          <mxGeometry x="380" y="2205" width="120" height="60" as="geometry" />
        </mxCell>
        <mxCell id="quBMS3EjXEbt8guT9nHp-170" value="" style="edgeStyle=orthogonalEdgeStyle;rounded=0;orthogonalLoop=1;jettySize=auto;html=1;" edge="1" parent="WIyWlLk6GJQsqaUBKTNV-1" source="quBMS3EjXEbt8guT9nHp-167" target="quBMS3EjXEbt8guT9nHp-169">
          <mxGeometry relative="1" as="geometry" />
        </mxCell>
        <mxCell id="quBMS3EjXEbt8guT9nHp-167" value="ELSE&lt;br&gt;IF home&amp;nbsp;" style="rhombus;whiteSpace=wrap;html=1;" vertex="1" parent="WIyWlLk6GJQsqaUBKTNV-1">
          <mxGeometry x="240" y="2355" width="80" height="80" as="geometry" />
        </mxCell>
        <mxCell id="quBMS3EjXEbt8guT9nHp-172" style="edgeStyle=orthogonalEdgeStyle;rounded=0;orthogonalLoop=1;jettySize=auto;html=1;" edge="1" parent="WIyWlLk6GJQsqaUBKTNV-1" source="quBMS3EjXEbt8guT9nHp-169" target="quBMS3EjXEbt8guT9nHp-177">
          <mxGeometry relative="1" as="geometry">
            <mxPoint x="920" y="2395" as="targetPoint" />
          </mxGeometry>
        </mxCell>
        <mxCell id="quBMS3EjXEbt8guT9nHp-169" value="landing page" style="whiteSpace=wrap;html=1;" vertex="1" parent="WIyWlLk6GJQsqaUBKTNV-1">
          <mxGeometry x="380" y="2365" width="120" height="60" as="geometry" />
        </mxCell>
        <mxCell id="quBMS3EjXEbt8guT9nHp-176" value="" style="endArrow=none;html=1;exitX=0.5;exitY=1;exitDx=0;exitDy=0;" edge="1" parent="WIyWlLk6GJQsqaUBKTNV-1" source="quBMS3EjXEbt8guT9nHp-177">
          <mxGeometry width="50" height="50" relative="1" as="geometry">
            <mxPoint x="920" y="2460" as="sourcePoint" />
            <mxPoint x="920" y="1850" as="targetPoint" />
          </mxGeometry>
        </mxCell>
        <mxCell id="quBMS3EjXEbt8guT9nHp-177" value="end" style="ellipse;whiteSpace=wrap;html=1;" vertex="1" parent="WIyWlLk6GJQsqaUBKTNV-1">
          <mxGeometry x="860" y="2355" width="120" height="80" as="geometry" />
        </mxCell>
        <mxCell id="quBMS3EjXEbt8guT9nHp-194" value="" style="edgeStyle=orthogonalEdgeStyle;rounded=0;orthogonalLoop=1;jettySize=auto;html=1;" edge="1" parent="WIyWlLk6GJQsqaUBKTNV-1" source="quBMS3EjXEbt8guT9nHp-179" target="quBMS3EjXEbt8guT9nHp-193">
          <mxGeometry relative="1" as="geometry" />
        </mxCell>
        <mxCell id="quBMS3EjXEbt8guT9nHp-179" value="e" style="ellipse;whiteSpace=wrap;html=1;aspect=fixed;" vertex="1" parent="WIyWlLk6GJQsqaUBKTNV-1">
          <mxGeometry x="210" y="2520" width="60" height="60" as="geometry" />
        </mxCell>
        <mxCell id="quBMS3EjXEbt8guT9nHp-180" value="True" style="text;html=1;strokeColor=none;fillColor=none;align=center;verticalAlign=middle;whiteSpace=wrap;rounded=0;" vertex="1" parent="WIyWlLk6GJQsqaUBKTNV-1">
          <mxGeometry x="350" y="870" width="40" height="20" as="geometry" />
        </mxCell>
        <mxCell id="quBMS3EjXEbt8guT9nHp-181" value="true" style="text;html=1;strokeColor=none;fillColor=none;align=center;verticalAlign=middle;whiteSpace=wrap;rounded=0;" vertex="1" parent="WIyWlLk6GJQsqaUBKTNV-1">
          <mxGeometry x="340" y="1030" width="40" height="20" as="geometry" />
        </mxCell>
        <mxCell id="quBMS3EjXEbt8guT9nHp-182" value="true" style="text;html=1;strokeColor=none;fillColor=none;align=center;verticalAlign=middle;whiteSpace=wrap;rounded=0;" vertex="1" parent="WIyWlLk6GJQsqaUBKTNV-1">
          <mxGeometry x="340" y="1195" width="40" height="20" as="geometry" />
        </mxCell>
        <mxCell id="quBMS3EjXEbt8guT9nHp-187" style="edgeStyle=orthogonalEdgeStyle;rounded=0;orthogonalLoop=1;jettySize=auto;html=1;" edge="1" parent="WIyWlLk6GJQsqaUBKTNV-1" source="quBMS3EjXEbt8guT9nHp-183">
          <mxGeometry relative="1" as="geometry">
            <mxPoint x="400" y="1360" as="targetPoint" />
          </mxGeometry>
        </mxCell>
        <mxCell id="quBMS3EjXEbt8guT9nHp-183" value="default" style="whiteSpace=wrap;html=1;" vertex="1" parent="WIyWlLk6GJQsqaUBKTNV-1">
          <mxGeometry x="240" y="1320" width="120" height="30" as="geometry" />
        </mxCell>
        <mxCell id="quBMS3EjXEbt8guT9nHp-188" value="end" style="ellipse;whiteSpace=wrap;html=1;aspect=fixed;" vertex="1" parent="WIyWlLk6GJQsqaUBKTNV-1">
          <mxGeometry x="380" y="1360" width="40" height="40" as="geometry" />
        </mxCell>
        <mxCell id="quBMS3EjXEbt8guT9nHp-192" value="e" style="ellipse;whiteSpace=wrap;html=1;" vertex="1" parent="WIyWlLk6GJQsqaUBKTNV-1">
          <mxGeometry x="776" y="1600" width="50" height="40" as="geometry" />
        </mxCell>
        <mxCell id="quBMS3EjXEbt8guT9nHp-196" value="" style="edgeStyle=orthogonalEdgeStyle;rounded=0;orthogonalLoop=1;jettySize=auto;html=1;startArrow=none;" edge="1" parent="WIyWlLk6GJQsqaUBKTNV-1" source="quBMS3EjXEbt8guT9nHp-201" target="quBMS3EjXEbt8guT9nHp-195">
          <mxGeometry relative="1" as="geometry" />
        </mxCell>
        <mxCell id="quBMS3EjXEbt8guT9nHp-198" value="" style="edgeStyle=orthogonalEdgeStyle;rounded=0;orthogonalLoop=1;jettySize=auto;html=1;" edge="1" parent="WIyWlLk6GJQsqaUBKTNV-1" source="quBMS3EjXEbt8guT9nHp-193" target="quBMS3EjXEbt8guT9nHp-197">
          <mxGeometry relative="1" as="geometry" />
        </mxCell>
        <mxCell id="quBMS3EjXEbt8guT9nHp-193" value="ELSE IF&lt;br&gt;publish page" style="rhombus;whiteSpace=wrap;html=1;" vertex="1" parent="WIyWlLk6GJQsqaUBKTNV-1">
          <mxGeometry x="200" y="2650" width="80" height="80" as="geometry" />
        </mxCell>
        <mxCell id="quBMS3EjXEbt8guT9nHp-195" value="publish page&amp;nbsp;" style="whiteSpace=wrap;html=1;" vertex="1" parent="WIyWlLk6GJQsqaUBKTNV-1">
          <mxGeometry x="340" y="2660" width="120" height="60" as="geometry" />
        </mxCell>
        <mxCell id="quBMS3EjXEbt8guT9nHp-200" value="" style="edgeStyle=orthogonalEdgeStyle;rounded=0;orthogonalLoop=1;jettySize=auto;html=1;" edge="1" parent="WIyWlLk6GJQsqaUBKTNV-1" source="quBMS3EjXEbt8guT9nHp-197" target="quBMS3EjXEbt8guT9nHp-199">
          <mxGeometry relative="1" as="geometry" />
        </mxCell>
        <mxCell id="quBMS3EjXEbt8guT9nHp-197" value="ELSE&amp;nbsp;&lt;br&gt;unpublish page" style="rhombus;whiteSpace=wrap;html=1;" vertex="1" parent="WIyWlLk6GJQsqaUBKTNV-1">
          <mxGeometry x="200" y="2810" width="80" height="80" as="geometry" />
        </mxCell>
        <mxCell id="quBMS3EjXEbt8guT9nHp-199" value="&amp;nbsp;unpublish the published page&amp;nbsp;&amp;nbsp;" style="whiteSpace=wrap;html=1;" vertex="1" parent="WIyWlLk6GJQsqaUBKTNV-1">
          <mxGeometry x="340" y="2820" width="120" height="60" as="geometry" />
        </mxCell>
        <mxCell id="quBMS3EjXEbt8guT9nHp-201" value="true" style="text;html=1;strokeColor=none;fillColor=none;align=center;verticalAlign=middle;whiteSpace=wrap;rounded=0;" vertex="1" parent="WIyWlLk6GJQsqaUBKTNV-1">
          <mxGeometry x="290" y="2670" width="40" height="20" as="geometry" />
        </mxCell>
        <mxCell id="quBMS3EjXEbt8guT9nHp-202" value="" style="edgeStyle=orthogonalEdgeStyle;rounded=0;orthogonalLoop=1;jettySize=auto;html=1;endArrow=none;" edge="1" parent="WIyWlLk6GJQsqaUBKTNV-1" source="quBMS3EjXEbt8guT9nHp-193" target="quBMS3EjXEbt8guT9nHp-201">
          <mxGeometry relative="1" as="geometry">
            <mxPoint x="280" y="2690" as="sourcePoint" />
            <mxPoint x="340" y="2690" as="targetPoint" />
          </mxGeometry>
        </mxCell>
        <mxCell id="quBMS3EjXEbt8guT9nHp-203" value="true" style="text;html=1;strokeColor=none;fillColor=none;align=center;verticalAlign=middle;whiteSpace=wrap;rounded=0;" vertex="1" parent="WIyWlLk6GJQsqaUBKTNV-1">
          <mxGeometry x="290" y="2830" width="40" height="20" as="geometry" />
        </mxCell>
        <mxCell id="quBMS3EjXEbt8guT9nHp-204" value="false" style="text;html=1;strokeColor=none;fillColor=none;align=center;verticalAlign=middle;whiteSpace=wrap;rounded=0;" vertex="1" parent="WIyWlLk6GJQsqaUBKTNV-1">
          <mxGeometry x="200" y="2750" width="40" height="20" as="geometry" />
        </mxCell>
        <mxCell id="quBMS3EjXEbt8guT9nHp-206" value="" style="edgeStyle=orthogonalEdgeStyle;rounded=0;orthogonalLoop=1;jettySize=auto;html=1;" edge="1" parent="WIyWlLk6GJQsqaUBKTNV-1" source="quBMS3EjXEbt8guT9nHp-207" target="quBMS3EjXEbt8guT9nHp-210">
          <mxGeometry relative="1" as="geometry" />
        </mxCell>
        <mxCell id="quBMS3EjXEbt8guT9nHp-207" value="c" style="ellipse;whiteSpace=wrap;html=1;aspect=fixed;" vertex="1" parent="WIyWlLk6GJQsqaUBKTNV-1">
          <mxGeometry x="171" y="2920" width="60" height="60" as="geometry" />
        </mxCell>
        <mxCell id="quBMS3EjXEbt8guT9nHp-208" value="" style="edgeStyle=orthogonalEdgeStyle;rounded=0;orthogonalLoop=1;jettySize=auto;html=1;startArrow=none;" edge="1" parent="WIyWlLk6GJQsqaUBKTNV-1" source="quBMS3EjXEbt8guT9nHp-215" target="quBMS3EjXEbt8guT9nHp-211">
          <mxGeometry relative="1" as="geometry" />
        </mxCell>
        <mxCell id="quBMS3EjXEbt8guT9nHp-209" value="" style="edgeStyle=orthogonalEdgeStyle;rounded=0;orthogonalLoop=1;jettySize=auto;html=1;" edge="1" parent="WIyWlLk6GJQsqaUBKTNV-1" source="quBMS3EjXEbt8guT9nHp-210" target="quBMS3EjXEbt8guT9nHp-213">
          <mxGeometry relative="1" as="geometry" />
        </mxCell>
        <mxCell id="quBMS3EjXEbt8guT9nHp-210" value="IF&lt;br&gt;recent note" style="rhombus;whiteSpace=wrap;html=1;" vertex="1" parent="WIyWlLk6GJQsqaUBKTNV-1">
          <mxGeometry x="161" y="2990" width="80" height="80" as="geometry" />
        </mxCell>
        <mxCell id="quBMS3EjXEbt8guT9nHp-221" value="" style="edgeStyle=orthogonalEdgeStyle;rounded=0;orthogonalLoop=1;jettySize=auto;html=1;" edge="1" parent="WIyWlLk6GJQsqaUBKTNV-1" source="quBMS3EjXEbt8guT9nHp-211" target="quBMS3EjXEbt8guT9nHp-220">
          <mxGeometry relative="1" as="geometry" />
        </mxCell>
        <mxCell id="quBMS3EjXEbt8guT9nHp-211" value="see top 5 recent note" style="whiteSpace=wrap;html=1;" vertex="1" parent="WIyWlLk6GJQsqaUBKTNV-1">
          <mxGeometry x="321" y="3040" width="120" height="60" as="geometry" />
        </mxCell>
        <mxCell id="quBMS3EjXEbt8guT9nHp-212" value="" style="edgeStyle=orthogonalEdgeStyle;rounded=0;orthogonalLoop=1;jettySize=auto;html=1;" edge="1" parent="WIyWlLk6GJQsqaUBKTNV-1" source="quBMS3EjXEbt8guT9nHp-213" target="quBMS3EjXEbt8guT9nHp-214">
          <mxGeometry relative="1" as="geometry" />
        </mxCell>
        <mxCell id="quBMS3EjXEbt8guT9nHp-229" value="" style="edgeStyle=orthogonalEdgeStyle;rounded=0;orthogonalLoop=1;jettySize=auto;html=1;" edge="1" parent="WIyWlLk6GJQsqaUBKTNV-1" source="quBMS3EjXEbt8guT9nHp-213" target="quBMS3EjXEbt8guT9nHp-228">
          <mxGeometry relative="1" as="geometry" />
        </mxCell>
        <mxCell id="quBMS3EjXEbt8guT9nHp-213" value="ELSE if&amp;nbsp;&lt;br&gt;recommended" style="rhombus;whiteSpace=wrap;html=1;" vertex="1" parent="WIyWlLk6GJQsqaUBKTNV-1">
          <mxGeometry x="161" y="3120" width="80" height="80" as="geometry" />
        </mxCell>
        <mxCell id="quBMS3EjXEbt8guT9nHp-223" value="" style="edgeStyle=orthogonalEdgeStyle;rounded=0;orthogonalLoop=1;jettySize=auto;html=1;" edge="1" parent="WIyWlLk6GJQsqaUBKTNV-1" source="quBMS3EjXEbt8guT9nHp-214" target="quBMS3EjXEbt8guT9nHp-222">
          <mxGeometry relative="1" as="geometry" />
        </mxCell>
        <mxCell id="quBMS3EjXEbt8guT9nHp-214" value="see top 5 recommended notes" style="whiteSpace=wrap;html=1;" vertex="1" parent="WIyWlLk6GJQsqaUBKTNV-1">
          <mxGeometry x="291" y="3130" width="120" height="60" as="geometry" />
        </mxCell>
        <mxCell id="quBMS3EjXEbt8guT9nHp-215" value="true" style="text;html=1;strokeColor=none;fillColor=none;align=center;verticalAlign=middle;whiteSpace=wrap;rounded=0;" vertex="1" parent="WIyWlLk6GJQsqaUBKTNV-1">
          <mxGeometry x="251" y="3040" width="40" height="20" as="geometry" />
        </mxCell>
        <mxCell id="quBMS3EjXEbt8guT9nHp-216" value="" style="edgeStyle=orthogonalEdgeStyle;rounded=0;orthogonalLoop=1;jettySize=auto;html=1;endArrow=none;" edge="1" parent="WIyWlLk6GJQsqaUBKTNV-1" source="quBMS3EjXEbt8guT9nHp-210" target="quBMS3EjXEbt8guT9nHp-215">
          <mxGeometry relative="1" as="geometry">
            <mxPoint x="241" y="3060" as="sourcePoint" />
            <mxPoint x="301" y="3060" as="targetPoint" />
          </mxGeometry>
        </mxCell>
        <mxCell id="quBMS3EjXEbt8guT9nHp-217" value="true" style="text;html=1;strokeColor=none;fillColor=none;align=center;verticalAlign=middle;whiteSpace=wrap;rounded=0;" vertex="1" parent="WIyWlLk6GJQsqaUBKTNV-1">
          <mxGeometry x="241" y="3160" width="40" height="20" as="geometry" />
        </mxCell>
        <mxCell id="quBMS3EjXEbt8guT9nHp-218" value="false" style="text;html=1;strokeColor=none;fillColor=none;align=center;verticalAlign=middle;whiteSpace=wrap;rounded=0;" vertex="1" parent="WIyWlLk6GJQsqaUBKTNV-1">
          <mxGeometry x="160" y="3090" width="40" height="20" as="geometry" />
        </mxCell>
        <mxCell id="quBMS3EjXEbt8guT9nHp-226" style="edgeStyle=orthogonalEdgeStyle;rounded=0;orthogonalLoop=1;jettySize=auto;html=1;entryX=0;entryY=0.5;entryDx=0;entryDy=0;" edge="1" parent="WIyWlLk6GJQsqaUBKTNV-1" source="quBMS3EjXEbt8guT9nHp-220" target="quBMS3EjXEbt8guT9nHp-224">
          <mxGeometry relative="1" as="geometry">
            <Array as="points">
              <mxPoint x="630" y="3070" />
              <mxPoint x="630" y="3160" />
            </Array>
          </mxGeometry>
        </mxCell>
        <mxCell id="quBMS3EjXEbt8guT9nHp-220" value="IF clicked&amp;nbsp;" style="rhombus;whiteSpace=wrap;html=1;" vertex="1" parent="WIyWlLk6GJQsqaUBKTNV-1">
          <mxGeometry x="541" y="3030" width="80" height="80" as="geometry" />
        </mxCell>
        <mxCell id="quBMS3EjXEbt8guT9nHp-225" value="" style="edgeStyle=orthogonalEdgeStyle;rounded=0;orthogonalLoop=1;jettySize=auto;html=1;" edge="1" parent="WIyWlLk6GJQsqaUBKTNV-1" source="quBMS3EjXEbt8guT9nHp-222">
          <mxGeometry relative="1" as="geometry">
            <mxPoint x="630" y="3160" as="targetPoint" />
          </mxGeometry>
        </mxCell>
        <mxCell id="quBMS3EjXEbt8guT9nHp-222" value="if Clicked" style="rhombus;whiteSpace=wrap;html=1;" vertex="1" parent="WIyWlLk6GJQsqaUBKTNV-1">
          <mxGeometry x="510" y="3120" width="80" height="80" as="geometry" />
        </mxCell>
        <mxCell id="quBMS3EjXEbt8guT9nHp-224" value="GO to Note Section" style="whiteSpace=wrap;html=1;" vertex="1" parent="WIyWlLk6GJQsqaUBKTNV-1">
          <mxGeometry x="730" y="3130" width="120" height="60" as="geometry" />
        </mxCell>
        <mxCell id="quBMS3EjXEbt8guT9nHp-231" value="" style="edgeStyle=orthogonalEdgeStyle;rounded=0;orthogonalLoop=1;jettySize=auto;html=1;" edge="1" parent="WIyWlLk6GJQsqaUBKTNV-1" source="quBMS3EjXEbt8guT9nHp-228" target="quBMS3EjXEbt8guT9nHp-230">
          <mxGeometry relative="1" as="geometry" />
        </mxCell>
        <mxCell id="quBMS3EjXEbt8guT9nHp-228" value="ELSE if&amp;nbsp;&lt;br&gt;recommended" style="rhombus;whiteSpace=wrap;html=1;" vertex="1" parent="WIyWlLk6GJQsqaUBKTNV-1">
          <mxGeometry x="160" y="3220" width="80" height="80" as="geometry" />
        </mxCell>
        <mxCell id="quBMS3EjXEbt8guT9nHp-233" value="" style="edgeStyle=orthogonalEdgeStyle;rounded=0;orthogonalLoop=1;jettySize=auto;html=1;" edge="1" parent="WIyWlLk6GJQsqaUBKTNV-1" source="quBMS3EjXEbt8guT9nHp-230" target="quBMS3EjXEbt8guT9nHp-232">
          <mxGeometry relative="1" as="geometry" />
        </mxCell>
        <mxCell id="quBMS3EjXEbt8guT9nHp-230" value="list all the published note" style="whiteSpace=wrap;html=1;" vertex="1" parent="WIyWlLk6GJQsqaUBKTNV-1">
          <mxGeometry x="300" y="3230" width="120" height="60" as="geometry" />
        </mxCell>
        <mxCell id="quBMS3EjXEbt8guT9nHp-234" style="edgeStyle=orthogonalEdgeStyle;rounded=0;orthogonalLoop=1;jettySize=auto;html=1;" edge="1" parent="WIyWlLk6GJQsqaUBKTNV-1" source="quBMS3EjXEbt8guT9nHp-232">
          <mxGeometry relative="1" as="geometry">
            <mxPoint x="630" y="3160" as="targetPoint" />
          </mxGeometry>
        </mxCell>
        <mxCell id="quBMS3EjXEbt8guT9nHp-232" value="if clicked" style="rhombus;whiteSpace=wrap;html=1;" vertex="1" parent="WIyWlLk6GJQsqaUBKTNV-1">
          <mxGeometry x="510" y="3220" width="80" height="80" as="geometry" />
        </mxCell>
        <mxCell id="quBMS3EjXEbt8guT9nHp-235" value="true" style="text;html=1;align=center;verticalAlign=middle;resizable=0;points=[];autosize=1;strokeColor=none;" vertex="1" parent="WIyWlLk6GJQsqaUBKTNV-1">
          <mxGeometry x="660" y="3140" width="40" height="20" as="geometry" />
        </mxCell>
        <mxCell id="quBMS3EjXEbt8guT9nHp-239" value="" style="edgeStyle=orthogonalEdgeStyle;rounded=0;orthogonalLoop=1;jettySize=auto;html=1;" edge="1" parent="WIyWlLk6GJQsqaUBKTNV-1" source="quBMS3EjXEbt8guT9nHp-237" target="quBMS3EjXEbt8guT9nHp-238">
          <mxGeometry relative="1" as="geometry" />
        </mxCell>
        <mxCell id="quBMS3EjXEbt8guT9nHp-237" value="D" style="ellipse;whiteSpace=wrap;html=1;aspect=fixed;" vertex="1" parent="WIyWlLk6GJQsqaUBKTNV-1">
          <mxGeometry x="170" y="3360" width="50" height="50" as="geometry" />
        </mxCell>
        <mxCell id="quBMS3EjXEbt8guT9nHp-241" value="" style="edgeStyle=orthogonalEdgeStyle;rounded=0;orthogonalLoop=1;jettySize=auto;html=1;" edge="1" parent="WIyWlLk6GJQsqaUBKTNV-1" source="quBMS3EjXEbt8guT9nHp-238" target="quBMS3EjXEbt8guT9nHp-240">
          <mxGeometry relative="1" as="geometry" />
        </mxCell>
        <mxCell id="quBMS3EjXEbt8guT9nHp-244" value="" style="edgeStyle=orthogonalEdgeStyle;rounded=0;orthogonalLoop=1;jettySize=auto;html=1;" edge="1" parent="WIyWlLk6GJQsqaUBKTNV-1" source="quBMS3EjXEbt8guT9nHp-238" target="quBMS3EjXEbt8guT9nHp-243">
          <mxGeometry relative="1" as="geometry" />
        </mxCell>
        <mxCell id="quBMS3EjXEbt8guT9nHp-238" value="if search keyword matched" style="rhombus;whiteSpace=wrap;html=1;" vertex="1" parent="WIyWlLk6GJQsqaUBKTNV-1">
          <mxGeometry x="285" y="3345" width="80" height="80" as="geometry" />
        </mxCell>
        <mxCell id="quBMS3EjXEbt8guT9nHp-240" value="show the result as note" style="whiteSpace=wrap;html=1;" vertex="1" parent="WIyWlLk6GJQsqaUBKTNV-1">
          <mxGeometry x="425" y="3355" width="120" height="60" as="geometry" />
        </mxCell>
        <mxCell id="quBMS3EjXEbt8guT9nHp-242" value="true" style="text;html=1;align=center;verticalAlign=middle;resizable=0;points=[];autosize=1;strokeColor=none;" vertex="1" parent="WIyWlLk6GJQsqaUBKTNV-1">
          <mxGeometry x="370" y="3370" width="40" height="20" as="geometry" />
        </mxCell>
        <mxCell id="quBMS3EjXEbt8guT9nHp-243" value="show result not found" style="whiteSpace=wrap;html=1;" vertex="1" parent="WIyWlLk6GJQsqaUBKTNV-1">
          <mxGeometry x="265" y="3480" width="120" height="60" as="geometry" />
        </mxCell>
        <mxCell id="quBMS3EjXEbt8guT9nHp-245" value="true" style="text;html=1;align=center;verticalAlign=middle;resizable=0;points=[];autosize=1;strokeColor=none;" vertex="1" parent="WIyWlLk6GJQsqaUBKTNV-1">
          <mxGeometry x="320" y="3440" width="40" height="20" as="geometry" />
        </mxCell>
      </root>
    </mxGraphModel>
  </diagram>
</mxfile>
